<?xml version="1.0" standalone="no"?>
<!DOCTYPE svg PUBLIC "-//W3C//DTD SVG 20010904//EN"
 "http://www.w3.org/TR/2001/REC-SVG-20010904/DTD/svg10.dtd">
<svg version="1.0" xmlns="http://www.w3.org/2000/svg"
 width="1200.000000pt" height="1200.000000pt" viewBox="0 0 1200.000000 1200.000000"
 preserveAspectRatio="xMidYMid meet">
<metadata>
Created by potrace 1.11, written by Peter Selinger 2001-2013
</metadata>
<g transform="translate(0.000000,1200.000000) scale(0.100000,-0.100000)"
fill="#000000" stroke="none">
<path d="M5208 10485 c-2 -2 -47 -6 -101 -10 -54 -3 -108 -8 -120 -10 -12 -2
-49 -7 -82 -11 -33 -4 -62 -8 -65 -9 -3 0 -32 -5 -65 -9 -32 -4 -66 -9 -75
-11 -8 -2 -62 -13 -120 -25 -372 -76 -721 -196 -1067 -368 -131 -64 -224 -115
-265 -143 -14 -11 -29 -19 -33 -19 -18 0 -397 -262 -480 -332 -11 -9 -52 -43
-90 -75 -121 -99 -329 -300 -441 -424 -409 -454 -724 -1002 -915 -1594 -28
-84 -93 -325 -103 -377 -2 -13 -11 -57 -19 -98 -9 -41 -19 -91 -22 -110 -3
-19 -7 -46 -10 -60 -2 -14 -7 -47 -11 -75 -3 -27 -8 -61 -10 -75 -5 -38 -14
-134 -23 -240 -8 -98 -6 -588 3 -650 2 -19 7 -64 11 -100 3 -36 8 -81 10 -100
3 -19 7 -53 10 -75 7 -52 22 -143 41 -232 7 -40 14 -79 14 -87 0 -8 -33 -31
-72 -51 -40 -21 -86 -45 -103 -55 -16 -9 -55 -31 -85 -47 -30 -17 -95 -54
-145 -83 -49 -29 -110 -64 -135 -78 -25 -14 -47 -28 -50 -32 -3 -4 -27 -19
-54 -35 -48 -28 -48 -28 -25 -41 50 -28 97 -36 121 -20 63 40 523 277 565 290
18 6 22 -1 38 -61 81 -303 240 -691 404 -987 114 -204 364 -563 476 -682 5 -6
30 -35 55 -65 50 -59 92 -104 213 -226 l81 -82 -36 -33 c-20 -18 -80 -73 -134
-123 -54 -49 -132 -122 -174 -161 -41 -39 -106 -100 -145 -136 -38 -36 -103
-96 -142 -134 l-73 -69 -6 -70 -5 -69 23 19 c13 11 28 24 33 30 6 6 109 98
230 205 121 107 222 197 225 200 3 3 36 32 75 65 78 67 110 95 175 153 49 44
48 44 113 -14 40 -37 206 -168 272 -216 346 -248 740 -453 1133 -589 102 -35
301 -96 342 -104 8 -2 38 -9 65 -15 28 -6 59 -14 70 -16 28 -7 163 -33 197
-39 15 -3 43 -8 61 -11 33 -6 59 -9 137 -19 25 -3 61 -8 80 -10 220 -28 794
-28 963 1 16 2 45 6 65 8 95 10 217 29 319 51 61 14 122 26 135 29 249 51 613
181 913 326 250 121 603 340 771 479 17 14 47 38 65 53 135 108 190 158 354
323 149 148 295 317 412 476 84 113 227 329 273 414 18 33 36 65 40 70 10 12
143 277 163 325 8 19 26 60 40 90 13 30 46 114 72 185 25 72 52 146 60 165 13
36 88 308 101 370 4 19 8 37 9 40 1 3 5 23 10 45 4 22 10 49 12 60 2 11 6 34
9 50 3 17 9 53 14 80 11 62 17 104 25 180 3 33 8 69 10 80 18 92 27 593 12
765 -16 199 -18 221 -33 313 -3 20 -7 47 -9 60 -30 237 -164 728 -250 922 -36
82 -45 110 -39 127 3 10 8 18 12 18 8 0 53 40 196 173 215 201 450 443 597
617 35 41 66 77 69 80 8 7 136 171 196 250 237 312 461 713 585 1044 16 43 28
80 26 82 -2 2 -18 -15 -35 -39 -17 -23 -44 -56 -59 -73 -15 -17 -44 -50 -63
-74 -91 -112 -441 -471 -571 -586 -31 -27 -71 -63 -90 -79 -288 -255 -653
-521 -1084 -788 l-89 -56 -49 77 c-89 139 -256 363 -352 472 -92 105 -130 145
-235 250 -436 436 -962 777 -1535 995 -328 124 -641 202 -1010 250 -60 8 -139
17 -175 20 -66 7 -616 15 -622 10z"/>
</g>
</svg>
